<?xml version="1.0" encoding="UTF-8"?>
<!DOCTYPE svg PUBLIC "-//W3C//DTD SVG 1.1//EN" "http://www.w3.org/Graphics/SVG/1.1/DTD/svg11.dtd">
<svg xmlns="http://www.w3.org/2000/svg" version="1.1" width="2542px" height="2513px" style="shape-rendering:geometricPrecision; text-rendering:geometricPrecision; image-rendering:optimizeQuality; fill-rule:evenodd; clip-rule:evenodd" xmlns:xlink="http://www.w3.org/1999/xlink">
<g><path style="opacity:0.975" fill="#3edf7b" d="M 1171.5,258.5 C 1237.5,258.167 1303.5,258.5 1369.5,259.5C 1594.53,284.669 1790.2,374.169 1956.5,528C 2117.28,682.407 2217.45,868.574 2257,1086.5C 2260.4,1108.07 2263.07,1129.74 2265,1151.5C 2265.22,1153.38 2265.88,1155.05 2267,1156.5C 2267.67,1222.83 2267.67,1289.17 2267,1355.5C 2241.66,1579.83 2152.32,1775.16 1999,1941.5C 1826.98,2120.18 1618.48,2223.34 1373.5,2251C 1372.38,2251.25 1371.38,2251.75 1370.5,2252.5C 1303.83,2253.83 1237.17,2253.83 1170.5,2252.5C 947.504,2227.24 753.17,2138.74 587.5,1987C 526.411,1928.52 473.911,1865.69 430,1798.5C 343.478,1663.44 291.478,1516.1 274,1356.5C 273.333,1289.83 273.333,1223.17 274,1156.5C 299.427,931.93 388.761,736.597 542,570.5C 713.986,391.753 922.486,288.587 1167.5,261C 1169.44,260.878 1170.77,260.045 1171.5,258.5 Z M 1249.5,346.5 C 1452.64,344.403 1636.64,401.237 1801.5,517C 1817.47,529.294 1833.47,541.628 1849.5,554C 1877.62,578.457 1904.79,603.957 1931,630.5C 1945.5,646.667 1960,662.833 1974.5,679C 1959.24,677.436 1943.91,676.102 1928.5,675C 1917.83,674.667 1907.17,674.333 1896.5,674C 1892.47,673.519 1888.47,672.853 1884.5,672C 1731.83,663.302 1578.99,659.469 1426,660.5C 1321.65,658.26 1217.48,661.093 1113.5,669C 1080.5,672.806 1047.5,676.473 1014.5,680C 1007.71,682.116 1000.71,683.116 993.5,683C 992.167,683.667 990.833,684.333 989.5,685C 917.701,694.091 847.367,709.425 778.5,731C 761.474,737.832 744.14,744.165 726.5,750C 681.705,768.267 640.038,791.934 601.5,821C 575.128,843.016 553.628,868.849 537,898.5C 521.926,932.488 515.259,968.154 517,1005.5C 518.417,1048.91 530.917,1088.57 554.5,1124.5C 564.673,1138.68 575.673,1152.18 587.5,1165C 613.605,1189.77 642.272,1211.1 673.5,1229C 691.783,1238.64 710.116,1247.97 728.5,1257C 810.333,1291.25 895,1317.92 982.5,1337C 986.152,1339.08 990.152,1340.08 994.5,1340C 995.328,1340.91 996.328,1341.58 997.5,1342C 1052.1,1353.39 1106.77,1365.73 1161.5,1379C 1170.5,1382.84 1179.84,1385.84 1189.5,1388C 1208.2,1395.32 1226.53,1403.66 1244.5,1413C 1251.11,1417.28 1257.45,1421.95 1263.5,1427C 1269.41,1433.33 1273.91,1440.5 1277,1448.5C 1278.31,1455.98 1276.65,1462.64 1272,1468.5C 1264.4,1475.77 1255.56,1480.94 1245.5,1484C 1219.23,1491.23 1192.57,1496.23 1165.5,1499C 1045.65,1509.34 926.312,1505.68 807.5,1488C 731.373,1475.75 656.707,1458.08 583.5,1435C 562.007,1430.32 541.34,1423.66 521.5,1415C 515.154,1413.16 508.821,1411.16 502.5,1409C 475.694,1397.44 448.694,1386.1 421.5,1375C 402.806,1365.83 384.14,1356.67 365.5,1347.5C 363.56,1317.04 361.893,1286.54 360.5,1256C 362.151,1098.52 400.484,951.017 475.5,813.5C 600.188,597.526 781.188,453.693 1018.5,382C 1028.37,379.861 1038.04,377.194 1047.5,374C 1051.85,374.082 1055.85,373.082 1059.5,371C 1063.85,371.082 1067.85,370.082 1071.5,368C 1084.96,365.856 1098.29,363.189 1111.5,360C 1115.83,359.667 1120.17,359.333 1124.5,359C 1125.83,358.333 1127.17,357.667 1128.5,357C 1133.83,356.667 1139.17,356.333 1144.5,356C 1145.83,355.333 1147.17,354.667 1148.5,354C 1165.2,352.665 1181.87,350.998 1198.5,349C 1215.7,348.96 1232.7,348.127 1249.5,346.5 Z M 1502.5,956.5 C 1528.5,956.333 1554.5,956.5 1580.5,957C 1603.51,958.72 1626.51,960.387 1649.5,962C 1702.88,968.72 1755.88,977.386 1808.5,988C 1837.19,995.01 1865.86,1002.34 1894.5,1010C 1895.67,1010.42 1896.67,1011.09 1897.5,1012C 1923.18,1018.66 1948.85,1025.66 1974.5,1033C 1978.49,1035.11 1982.82,1036.11 1987.5,1036C 2012.2,1045.08 2036.87,1054.42 2061.5,1064C 2086.35,1075.07 2111.35,1085.41 2136.5,1095C 2145.52,1099.37 2154.52,1103.71 2163.5,1108C 2164.79,1108.49 2166.13,1108.66 2167.5,1108.5C 2167.58,1111.41 2168.41,1114.07 2170,1116.5C 2171.3,1127.45 2172.3,1138.45 2173,1149.5C 2173.51,1151.88 2174.18,1154.21 2175,1156.5C 2177.34,1189.6 2179.18,1222.77 2180.5,1256C 2177.65,1474.05 2107.81,1667.55 1971,1836.5C 1817.89,2015.96 1625.05,2123.12 1392.5,2158C 1375.82,2159.33 1359.16,2161 1342.5,2163C 1319.48,2163.38 1296.48,2164.21 1273.5,2165.5C 1044.86,2163.52 844.194,2088.69 671.5,1941C 632.264,1905.93 595.931,1868.1 562.5,1827.5C 571.306,1825.92 579.972,1826.42 588.5,1829C 599.621,1828.92 610.621,1829.92 621.5,1832C 653.782,1834.51 686.115,1836.51 718.5,1838C 722.186,1838.56 725.853,1839.23 729.5,1840C 780.835,1842.44 832.169,1845.11 883.5,1848C 987.967,1851.32 1092.47,1852.82 1197,1852.5C 1258.17,1852.45 1319.34,1851.95 1380.5,1851C 1417.85,1848.33 1455.18,1845.67 1492.5,1843C 1563.62,1835.28 1633.95,1822.95 1703.5,1806C 1753.04,1792.16 1800.71,1773.49 1846.5,1750C 1893.42,1724.09 1932.59,1689.26 1964,1645.5C 1991.1,1602.22 2007.1,1554.88 2012,1503.5C 2015.29,1464.83 2015.29,1426.16 2012,1387.5C 1999.91,1293.2 1954.41,1219.04 1875.5,1165C 1811.6,1124.38 1742.27,1096.71 1667.5,1082C 1663.51,1079.89 1659.18,1078.89 1654.5,1079C 1653.38,1077.96 1652.04,1077.29 1650.5,1077C 1627.32,1073.24 1604.32,1068.58 1581.5,1063C 1527.22,1054.06 1472.89,1045.39 1418.5,1037C 1404.4,1033.49 1390.4,1029.83 1376.5,1026C 1372.5,1024 1368.5,1022 1364.5,1020C 1360.65,1017.16 1357.98,1013.49 1356.5,1009C 1360.55,995.279 1369.22,985.613 1382.5,980C 1398.4,973.551 1414.73,968.551 1431.5,965C 1455.14,961.141 1478.8,958.308 1502.5,956.5 Z"/></g>
</svg>
