<?xml version="1.0" encoding="UTF-8"?>
<!DOCTYPE svg PUBLIC "-//W3C//DTD SVG 1.1//EN" "http://www.w3.org/Graphics/SVG/1.1/DTD/svg11.dtd">
<svg xmlns="http://www.w3.org/2000/svg" version="1.1" width="2083px" height="763px" style="shape-rendering:geometricPrecision; text-rendering:geometricPrecision; image-rendering:optimizeQuality; fill-rule:evenodd; clip-rule:evenodd" xmlns:xlink="http://www.w3.org/1999/xlink">
<g><path style="opacity:0.975" fill="#fafbfa" d="M 687.5,105.5 C 700.837,105.333 714.171,105.5 727.5,106C 739.455,106.953 746.788,113.286 749.5,125C 750.698,130.781 751.531,136.614 752,142.5C 753.106,185.988 753.606,229.488 753.5,273C 753.333,309.833 753.167,346.667 753,383.5C 752.741,397.855 752.075,412.188 751,426.5C 750.971,429.367 750.138,431.867 748.5,434C 748.957,434.414 749.291,434.914 749.5,435.5C 747.461,437.742 745.795,440.242 744.5,443C 733.961,447.369 722.961,449.702 711.5,450C 699.138,450.752 686.804,450.419 674.5,449C 668.224,448.265 662.224,446.598 656.5,444C 653.246,441.658 651.412,438.491 651,434.5C 650.002,427.533 649.336,420.533 649,413.5C 647.482,336.84 647.149,260.173 648,183.5C 648.212,165.48 648.878,147.48 650,129.5C 650.659,115.84 657.825,108.34 671.5,107C 677.016,106.827 682.349,106.327 687.5,105.5 Z"/></g>
<g><path style="opacity:0.976" fill="#fafbfa" d="M 123.5,178.5 C 157.422,176.966 191.089,179.132 224.5,185C 236.168,188.336 247.502,192.669 258.5,198C 268.614,204.78 277.447,212.947 285,222.5C 287.947,228.06 290.614,233.726 293,239.5C 293.667,244.833 293.667,250.167 293,255.5C 290.833,259.834 288.166,263.834 285,267.5C 282.531,269.652 279.698,271.152 276.5,272C 257.5,275.333 238.5,275.333 219.5,272C 215.39,270.778 211.39,269.278 207.5,267.5C 181.694,247.784 153.027,242.284 121.5,251C 118.55,252.615 115.884,254.615 113.5,257C 115.112,259.989 117.445,262.322 120.5,264C 124.904,266.533 129.571,268.533 134.5,270C 163.575,278.085 192.908,285.418 222.5,292C 231.789,295.32 241.122,298.653 250.5,302C 268.13,310.465 282.13,322.965 292.5,339.5C 302.966,361.088 303.133,382.755 293,404.5C 289.947,407.887 287.28,411.553 285,415.5C 270.1,430.703 252.267,440.87 231.5,446C 205.741,450.994 179.741,453.161 153.5,452.5C 125.534,453.233 97.8672,450.733 70.5,445C 50.7605,440.049 33.5938,430.549 19,416.5C 9.12941,401.658 6.79608,385.658 12,368.5C 20.8633,359.43 31.6966,355.764 44.5,357.5C 61.0536,357.066 77.0536,359.566 92.5,365C 101.529,369.51 110.196,374.51 118.5,380C 124.29,382.281 130.29,383.614 136.5,384C 154.034,385.194 171.367,383.861 188.5,380C 193.747,378.794 195.414,375.794 193.5,371C 184.359,366.733 175.026,363.066 165.5,360C 137.981,353.631 110.648,346.631 83.5,339C 63.4954,333.333 45.4954,323.999 29.5,311C 22.803,303.976 17.303,296.143 13,287.5C -1.78559,238.753 14.7144,206.253 62.5,190C 82.419,183.349 102.752,179.516 123.5,178.5 Z"/></g>
<g><path style="opacity:0.98" fill="#fafbfa" d="M 441.5,178.5 C 480.991,175.35 518.991,181.183 555.5,196C 583.45,208.617 603.284,229.117 615,257.5C 644.48,384.593 594.147,449.926 464,453.5C 427.458,453.961 392.958,445.961 360.5,429.5C 328.746,409.689 310.912,381.022 307,343.5C 303.17,312.119 306.17,281.453 316,251.5C 322.08,238.503 330.247,227.003 340.5,217C 348.639,210.097 357.306,203.93 366.5,198.5C 390.46,187.433 415.46,180.766 441.5,178.5 Z M 453.5,247.5 C 467.165,246.708 480.498,248.375 493.5,252.5C 504.715,258.21 511.549,267.21 514,279.5C 518.894,304.912 518.561,330.245 513,355.5C 509.722,366.703 502.888,374.87 492.5,380C 475.234,385.442 457.9,385.775 440.5,381C 433.249,376.111 426.416,370.611 420,364.5C 417.754,360.766 416.087,356.766 415,352.5C 409.727,326.384 410.394,300.384 417,274.5C 418.743,270.016 420.743,265.683 423,261.5C 431.227,252.485 441.394,247.818 453.5,247.5 Z"/></g>
<g><path style="opacity:0.979" fill="#fafbfa" d="M 909.5,178.5 C 949.002,175.261 987.002,181.094 1023.5,196C 1065.27,216.379 1087.77,249.546 1091,295.5C 1094.77,328.751 1089.77,360.084 1076,389.5C 1071.94,394.558 1068.28,399.892 1065,405.5C 1049.26,422.299 1030.42,434.465 1008.5,442C 960.024,456.455 911.357,457.122 862.5,444C 850.521,439.783 838.854,434.783 827.5,429C 797.988,410.127 780.488,383.294 775,348.5C 769.266,311.925 773.432,277.092 787.5,244C 793.401,234.763 800.068,226.096 807.5,218C 810.797,215.705 813.797,213.038 816.5,210C 822.669,206.416 828.669,202.583 834.5,198.5C 858.46,187.433 883.46,180.766 909.5,178.5 Z M 921.5,247.5 C 934.769,246.784 947.769,248.284 960.5,252C 970.073,257.222 976.906,264.389 981,273.5C 986.173,299.019 986.839,324.686 983,350.5C 982.177,356.305 980.177,361.639 977,366.5C 968.575,376.632 957.742,382.465 944.5,384C 922.527,387.727 904.027,381.56 889,365.5C 881.956,353.91 878.956,341.243 880,327.5C 877.99,308.669 879.99,290.336 886,272.5C 889.5,261 897,253.5 908.5,250C 912.988,249.24 917.322,248.406 921.5,247.5 Z"/></g>
<g><path style="opacity:0.976" fill="#fafbfa" d="M 1217.5,178.5 C 1251.42,176.966 1285.09,179.132 1318.5,185C 1329.42,188.198 1340.09,192.198 1350.5,197C 1355.83,201 1361.17,205 1366.5,209C 1375.12,217.093 1381.62,226.593 1386,237.5C 1390.87,256.271 1384.04,268.104 1365.5,273C 1348.11,275.186 1330.78,274.852 1313.5,272C 1305.5,270.168 1298.5,266.501 1292.5,261C 1267.19,246.503 1240.53,243.503 1212.5,252C 1207.24,255.854 1207.24,259.521 1212.5,263C 1218.41,266.637 1224.74,269.304 1231.5,271C 1260.68,278.837 1290.01,286.171 1319.5,293C 1326.66,296.054 1333.99,298.72 1341.5,301C 1360.08,309.584 1374.91,322.417 1386,339.5C 1400.98,371.773 1395.48,399.94 1369.5,424C 1365.85,426.317 1362.52,428.984 1359.5,432C 1352.47,435.516 1345.47,439.016 1338.5,442.5C 1318.84,447.761 1298.84,450.928 1278.5,452C 1245.36,453.617 1212.36,452.284 1179.5,448C 1160.83,445.493 1143.5,439.326 1127.5,429.5C 1120.88,424.714 1115.05,419.047 1110,412.5C 1101.68,398.115 1100.35,383.115 1106,367.5C 1115.04,359.43 1125.71,356.097 1138,357.5C 1155.52,356.874 1172.36,359.707 1188.5,366C 1197.45,370.636 1206.11,375.636 1214.5,381C 1234.06,385.286 1253.73,385.62 1273.5,382C 1277.28,381.408 1280.94,380.408 1284.5,379C 1288.96,377.488 1289.96,374.988 1287.5,371.5C 1285.66,370.081 1283.66,368.914 1281.5,368C 1273.52,365.063 1265.52,362.23 1257.5,359.5C 1228.2,353.091 1199.2,345.591 1170.5,337C 1158.48,332.488 1146.81,327.155 1135.5,321C 1132.02,317.761 1128.35,314.761 1124.5,312C 1103.28,290.99 1096.45,265.823 1104,236.5C 1107.71,225.446 1113.88,215.946 1122.5,208C 1128.5,204 1134.5,200 1140.5,196C 1165.19,185.365 1190.86,179.532 1217.5,178.5 Z"/></g>
<g><path style="opacity:0.988" fill="#fafafa" d="M 811.5,470.5 C 995.167,470.333 1178.83,470.5 1362.5,471C 1368.33,475.5 1373.5,480.667 1378,486.5C 1378.98,489.12 1380.15,491.62 1381.5,494C 1381.36,494.772 1381.02,495.439 1380.5,496C 1381.72,497.525 1382.39,499.359 1382.5,501.5C 1383.64,540.823 1383.8,580.156 1383,619.5C 1382.4,634.863 1375.9,647.03 1363.5,656C 1179.5,656.833 995.499,656.667 811.5,655.5C 807.507,651.676 803.34,648.009 799,644.5C 796.566,641.205 794.899,637.538 794,633.5C 791.143,590.196 790.809,546.863 793,503.5C 793.089,495.679 795.423,488.679 800,482.5C 804.037,478.631 807.87,474.631 811.5,470.5 Z"/></g>
<g><path style="opacity:1" fill="#6f6f6f" d="M 1233.5,493.5 C 1233.5,493.833 1233.5,494.167 1233.5,494.5C 1220.17,494.5 1206.83,494.5 1193.5,494.5C 1193.5,499.833 1193.5,505.167 1193.5,510.5C 1192.51,505.025 1192.18,499.358 1192.5,493.5C 1206.17,493.5 1219.83,493.5 1233.5,493.5 Z"/></g>
<g><path style="opacity:1" fill="#080808" d="M 957.5,497.5 C 957.259,499.898 957.926,501.898 959.5,503.5C 960.084,511.515 960.751,519.515 961.5,527.5C 966.213,528.497 970.88,528.163 975.5,526.5C 994.31,523.954 1011.98,527.12 1028.5,536C 1039.43,543.683 1045.93,554.183 1048,567.5C 1048.67,576.833 1048.67,586.167 1048,595.5C 1047,598.5 1046,601.5 1045,604.5C 1038.25,613.921 1030.75,622.754 1022.5,631C 995.154,631.724 967.821,631.391 940.5,630C 934.995,629.797 929.661,628.797 924.5,627C 921.836,621.848 920.336,616.348 920,610.5C 919.5,571.501 919.333,532.501 919.5,493.5C 930.869,493.241 942.203,493.741 953.5,495C 954.984,495.662 956.317,496.496 957.5,497.5 Z"/></g>
<g><path style="opacity:1" fill="#080808" d="M 1233.5,494.5 C 1233.5,507.833 1233.5,521.167 1233.5,534.5C 1234.5,534.5 1235.5,534.5 1236.5,534.5C 1239.17,534.5 1241.83,534.5 1244.5,534.5C 1249.66,535.458 1254.99,536.125 1260.5,536.5C 1270.26,536.43 1273.76,541.096 1271,550.5C 1268.21,553.03 1265.04,554.697 1261.5,555.5C 1256.92,555.438 1252.59,556.105 1248.5,557.5C 1241.31,557.185 1236.81,560.518 1235,567.5C 1234.33,576.5 1234.33,585.5 1235,594.5C 1236.35,600.89 1239.85,605.557 1245.5,608.5C 1247.28,609.6 1249.28,610.434 1251.5,611C 1256.82,611.499 1262.16,611.666 1267.5,611.5C 1275.09,610.758 1278.75,614.091 1278.5,621.5C 1279.41,628.419 1276.41,632.252 1269.5,633C 1252.42,634.103 1235.42,633.437 1218.5,631C 1203.81,626.641 1196.31,616.807 1196,601.5C 1194.77,571.178 1193.93,540.845 1193.5,510.5C 1193.5,505.167 1193.5,499.833 1193.5,494.5C 1206.83,494.5 1220.17,494.5 1233.5,494.5 Z"/></g>
<g><path style="opacity:1" fill="#adadad" d="M 1233.5,493.5 C 1233.87,507.235 1234.87,520.902 1236.5,534.5C 1235.5,534.5 1234.5,534.5 1233.5,534.5C 1233.5,521.167 1233.5,507.833 1233.5,494.5C 1233.5,494.167 1233.5,493.833 1233.5,493.5 Z"/></g>
<g><path style="opacity:1" fill="#5f5f5f" d="M 957.5,497.5 C 959.074,499.102 959.741,501.102 959.5,503.5C 957.926,501.898 957.259,499.898 957.5,497.5 Z"/></g>
<g><path style="opacity:1" fill="#636363" d="M 975.5,526.5 C 970.88,528.163 966.213,528.497 961.5,527.5C 966.13,526.771 970.797,526.437 975.5,526.5 Z"/></g>
<g><path style="opacity:1" fill="#464646" d="M 1127.5,528.5 C 1114.82,528.345 1102.15,528.678 1089.5,529.5C 1090.61,528.71 1091.94,528.21 1093.5,528C 1105.01,527.174 1116.34,527.341 1127.5,528.5 Z"/></g>
<g><path style="opacity:1" fill="#080808" d="M 1127.5,528.5 C 1140.89,529.138 1153.22,532.972 1164.5,540C 1177.55,553.584 1183.71,569.751 1183,588.5C 1181.27,590.451 1179.1,591.451 1176.5,591.5C 1155.35,592.097 1134.35,592.764 1113.5,593.5C 1108,592.64 1103.17,593.973 1099,597.5C 1098.97,603.178 1101.81,607.011 1107.5,609C 1115.17,609.667 1122.83,609.667 1130.5,609C 1138.95,605.888 1147.61,603.722 1156.5,602.5C 1161.56,602.274 1166.56,602.608 1171.5,603.5C 1179.42,607.537 1180.59,613.204 1175,620.5C 1169.6,625.754 1163.1,628.921 1155.5,630C 1147.9,631.538 1140.24,632.371 1132.5,632.5C 1119.8,632.754 1107.14,632.421 1094.5,631.5C 1073.19,630.182 1060.19,619.182 1055.5,598.5C 1054.69,590.862 1054.35,583.196 1054.5,575.5C 1054.87,551.473 1066.54,536.14 1089.5,529.5C 1102.15,528.678 1114.82,528.345 1127.5,528.5 Z"/></g>
<g><path style="opacity:1" fill="#b8b8b8" d="M 1244.5,534.5 C 1248.85,534.334 1253.18,534.501 1257.5,535C 1258.74,535.232 1259.74,535.732 1260.5,536.5C 1254.99,536.125 1249.66,535.458 1244.5,534.5 Z"/></g>
<g><path style="opacity:1" fill="#f6f6f6" d="M 974.5,548.5 C 980.233,547.895 985.566,549.062 990.5,552C 1004.04,560.922 1009.2,573.422 1006,589.5C 1004.96,599.527 999.797,606.361 990.5,610C 980.814,610.658 971.148,610.492 961.5,609.5C 960.142,594.863 959.642,580.196 960,565.5C 961.472,556.868 966.305,551.202 974.5,548.5 Z"/></g>
<g><path style="opacity:1" fill="#f6f6f6" d="M 1130.5,569.5 C 1119.47,569.74 1108.47,569.407 1097.5,568.5C 1094.22,566.823 1093.72,564.49 1096,561.5C 1101.98,555.339 1108.98,550.672 1117,547.5C 1125.1,550.933 1132.1,555.933 1138,562.5C 1139.01,564.025 1139.51,565.692 1139.5,567.5C 1136.5,568.167 1133.5,568.833 1130.5,569.5 Z"/></g>
<g><path style="opacity:1" fill="#8e8e8e" d="M 1261.5,555.5 C 1257.46,557.177 1253.12,557.844 1248.5,557.5C 1252.59,556.105 1256.92,555.438 1261.5,555.5 Z"/></g>
<g><path style="opacity:1" fill="#adadad" d="M 1097.5,568.5 C 1108.47,569.407 1119.47,569.74 1130.5,569.5C 1120.68,570.658 1110.68,570.825 1100.5,570C 1099.26,569.768 1098.26,569.268 1097.5,568.5 Z"/></g>
<g><path style="opacity:1" fill="#b5b5b5" d="M 1176.5,591.5 C 1176.39,592.117 1176.06,592.617 1175.5,593C 1154.84,593.5 1134.17,593.667 1113.5,593.5C 1134.35,592.764 1155.35,592.097 1176.5,591.5 Z"/></g>
<g><path style="opacity:1" fill="#afafaf" d="M 1054.5,575.5 C 1054.35,583.196 1054.69,590.862 1055.5,598.5C 1054.73,597.737 1054.23,596.737 1054,595.5C 1053.18,588.654 1053.35,581.987 1054.5,575.5 Z"/></g>
<g><path style="opacity:1" fill="#b1b1b1" d="M 1156.5,602.5 C 1160.98,601.352 1165.65,601.185 1170.5,602C 1171.06,602.383 1171.39,602.883 1171.5,603.5C 1166.56,602.608 1161.56,602.274 1156.5,602.5 Z"/></g>
<g><path style="opacity:1" fill="#909090" d="M 1245.5,608.5 C 1252.91,609.852 1260.24,610.852 1267.5,611.5C 1262.16,611.666 1256.82,611.499 1251.5,611C 1249.28,610.434 1247.28,609.6 1245.5,608.5 Z"/></g>
<g><path style="opacity:1" fill="#949494" d="M 1094.5,631.5 C 1107.14,632.421 1119.8,632.754 1132.5,632.5C 1120.67,633.66 1108.67,633.826 1096.5,633C 1095.58,632.722 1094.92,632.222 1094.5,631.5 Z"/></g>
</svg>
