<svg xmlns="http://www.w3.org/2000/svg" width="500" height="183" viewBox="0 0 500 183" version="1.1"><path d="M 299 129.531 C 299 142.430, 299.197 144.143, 300.750 144.781 C 301.712 145.177, 306.924 145.500, 312.332 145.500 L 322.164 145.500 325.082 142.234 C 327.456 139.577, 328 138.064, 328 134.119 C 328 125.888, 322.282 121.412, 312.730 122.166 L 308.500 122.500 308.190 118.750 C 307.881 115.026, 307.848 115, 303.440 115 L 299 115 299 129.531 M 360.173 128.591 C 360.483 141.473, 360.623 142.281, 362.861 144.091 C 364.673 145.557, 366.822 146, 372.111 146 C 378.793 146, 379 145.925, 379 143.500 C 379 141.254, 378.598 141, 375.035 141 C 370.324 141, 368.723 138.864, 369.192 133.208 C 369.484 129.698, 369.714 129.473, 373.500 129 C 376.667 128.604, 377.500 128.083, 377.500 126.500 C 377.500 124.862, 376.731 124.444, 373.250 124.193 L 369 123.885 369 119.443 L 369 115 364.423 115 L 359.845 115 360.173 128.591 M 336.313 123.044 C 331.510 124.521, 329 128.351, 329 134.201 C 329 143.169, 332.576 146, 343.903 146 C 351.230 146, 355.506 144.730, 356.448 142.274 C 357.728 138.939, 353.549 137.949, 347.472 140.146 C 343.720 141.503, 339 140.575, 339 138.481 C 339 137.277, 340.777 137, 348.500 137 C 357.383 137, 358 136.868, 358 134.968 C 358 131.533, 355.298 126.241, 352.661 124.514 C 349.607 122.512, 340.658 121.708, 336.313 123.044 M 309.631 128.280 C 308.255 129.287, 307.947 130.732, 308.190 135.030 L 308.500 140.500 312.086 140.801 C 316.488 141.170, 318.400 139.194, 318.400 134.278 C 318.400 131.790, 317.715 130.188, 316.089 128.871 C 313.367 126.667, 312.008 126.543, 309.631 128.280 M 340.223 128.557 C 336.754 130.986, 337.571 132, 343 132 C 345.750 132, 348 131.576, 348 131.057 C 348 130.144, 344.125 127, 343 127 C 342.695 127, 341.445 127.701, 340.223 128.557" stroke="none" fill="#060606" fill-rule="evenodd"/><path d="M 240.655 30.829 C 239.182 32.456, 239 36.465, 239 67.257 C 239 97.378, 239.203 102.061, 240.571 103.429 C 242.998 105.855, 258.094 105.659, 260.345 103.171 C 261.818 101.544, 262 97.541, 262 66.826 C 262 26.095, 262.896 29, 250.326 29 C 243.830 29, 241.996 29.347, 240.655 30.829 M 113.113 46.545 C 102.525 48.842, 96.928 54.102, 96.821 61.858 C 96.749 67.120, 97.763 70.003, 100.862 73.342 C 104.871 77.661, 109.758 79.735, 123.731 83.052 C 137.768 86.384, 141.188 88.218, 136.608 89.959 C 135.102 90.532, 131.262 91, 128.074 91 C 123.411 91, 121.520 90.474, 118.390 88.306 C 115.378 86.220, 113.005 85.519, 107.881 85.201 C 99.126 84.656, 97 85.816, 97 91.135 C 97 96.568, 101.514 101.177, 109.053 103.442 C 120.746 106.956, 143.382 106.377, 151.346 102.362 C 165.374 95.289, 164.817 79.925, 150.267 72.595 C 148.489 71.699, 142.189 69.838, 136.267 68.459 C 123.406 65.465, 120 64.201, 120 62.424 C 120 60.739, 125.837 59.607, 131.312 60.231 C 133.616 60.493, 137.250 61.898, 139.390 63.354 C 142.641 65.566, 144.380 66, 149.985 66 C 155.374 66, 157.038 65.615, 158.464 64.040 C 162.129 59.990, 158.261 52.628, 150.383 48.657 C 143.238 45.056, 124.794 44.010, 113.113 46.545 M 186 46.390 C 170.196 49.904, 162.900 59.099, 162.900 75.500 C 162.900 84.952, 164.993 91.270, 169.804 96.343 C 176.741 103.659, 191.650 107.333, 205.943 105.250 C 224.502 102.545, 233.200 93.051, 233.200 75.500 C 233.200 66.282, 230.993 59.715, 226.196 54.657 C 218.514 46.556, 201.236 43.003, 186 46.390 M 290 46.390 C 274.196 49.904, 266.900 59.099, 266.900 75.500 C 266.900 84.952, 268.993 91.270, 273.804 96.343 C 280.741 103.659, 295.650 107.333, 309.943 105.250 C 328.502 102.545, 337.200 93.051, 337.200 75.500 C 337.200 66.282, 334.993 59.715, 330.196 54.657 C 322.514 46.556, 305.236 43.003, 290 46.390 M 356.113 46.545 C 345.525 48.842, 339.928 54.102, 339.821 61.858 C 339.749 67.120, 340.763 70.003, 343.862 73.342 C 347.871 77.661, 352.758 79.735, 366.731 83.052 C 380.768 86.384, 384.188 88.218, 379.608 89.959 C 378.102 90.532, 374.262 91, 371.074 91 C 366.411 91, 364.520 90.474, 361.390 88.306 C 358.378 86.220, 356.005 85.519, 350.881 85.201 C 342.126 84.656, 340 85.816, 340 91.135 C 340 96.568, 344.514 101.177, 352.053 103.442 C 363.746 106.956, 386.382 106.377, 394.346 102.362 C 408.374 95.289, 407.817 79.925, 393.267 72.595 C 391.489 71.699, 385.189 69.838, 379.267 68.459 C 366.406 65.465, 363 64.201, 363 62.424 C 363 60.739, 368.837 59.607, 374.312 60.231 C 376.616 60.493, 380.250 61.898, 382.390 63.354 C 385.641 65.566, 387.380 66, 392.985 66 C 398.374 66, 400.038 65.615, 401.464 64.040 C 405.129 59.990, 401.261 52.628, 393.383 48.657 C 386.238 45.056, 367.794 44.010, 356.113 46.545 M 191.303 61.197 C 187.440 63.063, 185.757 68.304, 186.161 77.206 C 186.503 84.748, 186.702 85.344, 189.777 88.092 C 192.356 90.397, 193.973 91, 197.565 91 C 206.927 91, 210.111 87.066, 210.111 75.500 C 210.111 67.182, 208.705 63.416, 204.855 61.425 C 201.666 59.776, 194.494 59.655, 191.303 61.197 M 295.303 61.197 C 291.440 63.063, 289.757 68.304, 290.161 77.206 C 290.503 84.748, 290.702 85.344, 293.777 88.092 C 299.383 93.101, 310.038 91.601, 312.861 85.406 C 314.476 81.861, 314.476 69.139, 312.861 65.594 C 312.173 64.085, 310.371 62.209, 308.855 61.425 C 305.666 59.776, 298.494 59.655, 295.303 61.197 M 273.174 112.314 C 271.129 114.492, 271 115.577, 271 130.640 C 271 146.084, 271.082 146.728, 273.314 148.826 L 275.629 151 336.640 151 L 397.651 151 399.826 148.686 C 401.871 146.508, 402 145.423, 402 130.360 C 402 114.916, 401.918 114.272, 399.686 112.174 L 397.371 110 336.360 110 L 275.349 110 273.174 112.314 M 299 129.531 C 299 142.430, 299.197 144.143, 300.750 144.781 C 301.712 145.177, 306.924 145.500, 312.332 145.500 L 322.164 145.500 325.082 142.234 C 327.456 139.577, 328 138.064, 328 134.119 C 328 125.888, 322.282 121.412, 312.730 122.166 L 308.500 122.500 308.190 118.750 C 307.881 115.026, 307.848 115, 303.440 115 L 299 115 299 129.531 M 360.173 128.591 C 360.483 141.473, 360.623 142.281, 362.861 144.091 C 364.673 145.557, 366.822 146, 372.111 146 C 378.793 146, 379 145.925, 379 143.500 C 379 141.254, 378.598 141, 375.035 141 C 370.324 141, 368.723 138.864, 369.192 133.208 C 369.484 129.698, 369.714 129.473, 373.500 129 C 376.667 128.604, 377.500 128.083, 377.500 126.500 C 377.500 124.862, 376.731 124.444, 373.250 124.193 L 369 123.885 369 119.443 L 369 115 364.423 115 L 359.845 115 360.173 128.591 M 336.313 123.044 C 331.510 124.521, 329 128.351, 329 134.201 C 329 143.169, 332.576 146, 343.903 146 C 351.230 146, 355.506 144.730, 356.448 142.274 C 357.728 138.939, 353.549 137.949, 347.472 140.146 C 343.720 141.503, 339 140.575, 339 138.481 C 339 137.277, 340.777 137, 348.500 137 C 357.383 137, 358 136.868, 358 134.968 C 358 131.533, 355.298 126.241, 352.661 124.514 C 349.607 122.512, 340.658 121.708, 336.313 123.044 M 309.631 128.280 C 308.255 129.287, 307.947 130.732, 308.190 135.030 L 308.500 140.500 312.086 140.801 C 316.488 141.170, 318.400 139.194, 318.400 134.278 C 318.400 131.790, 317.715 130.188, 316.089 128.871 C 313.367 126.667, 312.008 126.543, 309.631 128.280 M 340.223 128.557 C 336.754 130.986, 337.571 132, 343 132 C 345.750 132, 348 131.576, 348 131.057 C 348 130.144, 344.125 127, 343 127 C 342.695 127, 341.445 127.701, 340.223 128.557" stroke="none" fill="#fbfbfb" fill-rule="evenodd"/></svg>